# xmcd CD database file
#
# Track frame offsets:
#	150
#	13299
#	16277
#	27055
#	61731
#	75568
#	105726
#	117755
#	129664
#	151646
#	167976
#	183163
#
# Disc length: 2725 seconds
#
# Revision: 0
# Processed by: cddbd v1.5.2PL0 Copyright (c) Steve Scherf et al.
# Submitted via: CDex 1.70beta2
#
DISCID=870aa30c
DTITLE=Various Artist - 快眠ジャズ
DYEAR=2016
DGENRE=Jazz
TTITLE0=Summertime
TTITLE1=Epilogue
TTITLE2=Why Shouldn’t I
TTITLE3=Maidens Of Cadiz
TTITLE4=Symphony
TTITLE5=Peace Piece
TTITLE6=I’ll Keep Loving You
TTITLE7=Moonglow
TTITLE8=What Is There To Say？
TTITLE9=My Last Affair
TTITLE10=All The Things You Are
TTITLE11=You Are Too Beautiful
EXTD=YEAR: 2016
EXTT0=
EXTT1=
EXTT2=
EXTT3=
EXTT4=
EXTT5=
EXTT6=
EXTT7=
EXTT8=
EXTT9=
EXTT10=
EXTT11=
PLAYORDER=
